HIERARCHY
ROOT Hips
{
 OFFSET 0.000000 0.000000 0.000000
 CHANNELS 6 Xposition Yposition Zposition Yrotation Xrotation Zrotation
 JOINT Chest
 {
  OFFSET 0.000000 9.585900 0.002600
  CHANNELS 3 Yrotation Xrotation Zrotation
  JOINT Chest2
  {
   OFFSET 0.000000 9.601200 -0.005300
   CHANNELS 3 Yrotation Xrotation Zrotation
   JOINT Chest3
   {
    OFFSET 0.000000 9.561800 0.000000
    CHANNELS 3 Yrotation Xrotation Zrotation
    JOINT Chest4
    {
     OFFSET 0.000000 9.552100 0.000000
     CHANNELS 3 Yrotation Xrotation Zrotation
     JOINT Neck
     {
      OFFSET 0.000000 14.453000 0.000000
      CHANNELS 3 Yrotation Xrotation Zrotation
      JOINT Head
      {
       OFFSET 0.000000 8.936500 -0.011300
       CHANNELS 3 Yrotation Xrotation Zrotation
       End Site
       {
        OFFSET 0.000000 17.073600 -0.006000
       }
      }
     }
     JOINT RightCollar
     {
      OFFSET -2.921100 9.558500 0.000000
      CHANNELS 3 Yrotation Xrotation Zrotation
      JOINT RightShoulder
      {
       OFFSET -13.519700 0.000000 0.000000
       CHANNELS 3 Yrotation Xrotation Zrotation
       JOINT RightElbow
       {
        OFFSET 0.000000 -29.696600 0.000000
        CHANNELS 3 Yrotation Xrotation Zrotation
        JOINT RightWrist
        {
         OFFSET 0.000000 -24.004700 0.000000
         CHANNELS 3 Yrotation Xrotation Zrotation
         End Site
         {
          OFFSET 0.000000 -17.728500 0.000000
         }
        }
       }
      }
     }
     JOINT LeftCollar
     {
      OFFSET 2.921100 9.558500 0.000000
      CHANNELS 3 Yrotation Xrotation Zrotation
      JOINT LeftShoulder
      {
       OFFSET 13.519700 0.000000 0.000000
       CHANNELS 3 Yrotation Xrotation Zrotation
       JOINT LeftElbow
       {
        OFFSET 0.000000 -29.696600 0.000000
        CHANNELS 3 Yrotation Xrotation Zrotation
        JOINT LeftWrist
        {
         OFFSET 0.000000 -24.004700 0.000000
         CHANNELS 3 Yrotation Xrotation Zrotation
         End Site
         {
          OFFSET 0.000000 -17.728500 0.000000
         }
        }
       }
      }
     }
    }
   }
  }
 }
 JOINT RightHip
 {
  OFFSET -7.771700 -0.012900 -0.001300
  CHANNELS 3 Yrotation Xrotation Zrotation
  JOINT RightKnee
  {
   OFFSET 0.000000 -40.869800 0.001200
   CHANNELS 3 Yrotation Xrotation Zrotation
   JOINT RightAnkle
   {
    OFFSET 0.000000 -39.717900 0.002100
    CHANNELS 3 Yrotation Xrotation Zrotation
    JOINT RightToe
    {
     OFFSET 0.000000 -4.965400 11.033500
     CHANNELS 3 Yrotation Xrotation Zrotation
     End Site
     {
      OFFSET 0.000000 -1.423100 5.872300
     }
    }
   }
  }
 }
 JOINT LeftHip
 {
  OFFSET 7.771700 -0.012900 -0.001300
  CHANNELS 3 Yrotation Xrotation Zrotation
  JOINT LeftKnee
  {
   OFFSET 0.000000 -40.869800 0.001200
   CHANNELS 3 Yrotation Xrotation Zrotation
   JOINT LeftAnkle
   {
    OFFSET 0.000000 -39.717900 0.002100
    CHANNELS 3 Yrotation Xrotation Zrotation
    JOINT LeftToe
    {
     OFFSET 0.000000 -4.965400 11.033500
     CHANNELS 3 Yrotation Xrotation Zrotation
     End Site
     {
      OFFSET 0.000000 -1.423100 5.872300
     }
    }
   }
  }
 }
}
MOTION
Frames: 9
Frame Time: 0.008333
-62.191920 61.986823 15.256633 174.548664 -52.020434 -0.589596 4.854385 27.253189 1.654066 0.766666 4.812812 0.162059 1.212404 7.596447 0.276023 3.766104 22.143045 1.295283 1.285441 17.364104 0.988903 2.029387 -3.568276 1.433646 5.447539 5.228178 5.859012 0.335492 -11.604010 -14.115364 -60.328630 -22.403941 113.539489 -16.035347 4.607403 -20.620392 -11.204497 4.709304 -1.822042 -1.809592 -12.201057 16.998130 71.159356 -42.304497 -110.976983 29.891481 -8.457753 19.096016 1.478293 -15.173893 -2.513746 -7.926195 63.213797 -11.006156 1.104625 -5.602786 8.030385 0.110099 0.054901 -0.063054 -4.880431 -12.539941 4.317031 29.170883 74.392661 31.763030 1.755801 -9.225915 -6.712871 -0.039057 0.143687 -0.017947
-62.187831 61.988758 15.249032 174.562783 -52.024612 -0.597582 4.842667 27.256693 1.648082 0.761448 4.808645 0.153762 1.202226 7.588967 0.257880 3.777828 22.146947 1.300677 1.306254 17.366377 1.021784 2.025926 -3.613028 1.612023 5.465108 5.231528 5.868627 0.398509 -11.522443 -14.130593 -60.350192 -22.497741 113.565495 -15.983891 4.651993 -20.614204 -11.188082 4.705510 -1.809419 -1.884879 -12.211829 17.000715 71.033752 -42.237847 -110.915192 29.899541 -8.467973 19.126385 1.461920 -15.172870 -2.517431 -7.911208 63.241666 -10.992008 1.094443 -5.665295 8.035272 0.110976 0.063671 -0.061139 -4.889811 -12.535272 4.315481 29.160700 74.399937 31.752117 1.763337 -9.223593 -6.712604 -0.042364 0.138446 -0.019549
-62.183133 61.991228 15.241504 174.571820 -52.032670 -0.608615 4.832306 27.261439 1.638132 0.754805 4.803666 0.140690 1.214730 7.593500 0.274646 3.767983 22.142745 1.284928 1.314621 17.334706 1.138993 2.030585 -3.626618 1.699159 5.482017 5.224382 5.857346 0.449038 -11.431580 -14.120143 -60.372120 -22.586171 113.587994 -15.935794 4.705134 -20.604233 -11.168247 4.678354 -1.798929 -1.963199 -12.197302 16.999695 70.922379 -42.181037 -110.848794 29.902417 -8.471837 19.160068 1.445504 -15.168262 -2.514367 -7.899196 63.268994 -10.979404 1.088340 -5.725754 8.037827 0.111252 0.070663 -0.058938 -4.896640 -12.526529 4.320301 29.129316 74.418111 31.720667 1.786332 -9.230346 -6.710487 -0.048377 0.136148 -0.022825
-62.180308 61.992595 15.235253 174.578875 -52.031248 -0.610556 4.820441 27.257637 1.622270 0.757269 4.804859 0.143951 1.214435 7.591857 0.273449 3.766306 22.142282 1.280581 1.312348 17.309212 1.216781 2.026596 -3.653427 1.812827 5.494586 5.214421 5.838863 0.486448 -11.345178 -14.105949 -60.385920 -22.671692 113.603374 -15.893432 4.751912 -20.590433 -11.159630 4.678187 -1.791783 -2.000502 -12.203139 16.995908 70.811494 -42.127847 -110.809656 29.899664 -8.468662 19.195057 1.432265 -15.169326 -2.522311 -7.890011 63.291536 -10.967722 1.083862 -5.805443 8.050336 0.108745 0.012472 -0.030119 -4.903703 -12.526692 4.317434 29.128667 74.421765 31.717556 1.795119 -9.229096 -6.710827 -0.054221 0.136155 -0.022943
-62.178009 61.993865 15.229743 174.587665 -52.027957 -0.613392 4.806856 27.254155 1.603570 0.760078 4.804386 0.148780 1.202593 7.588236 0.254905 3.782698 22.142758 1.294150 1.317300 17.300945 1.252765 2.008666 -3.700622 1.967695 5.506494 5.205630 5.821540 0.518893 -11.265702 -14.087473 -60.389062 -22.753930 113.610227 -15.856076 4.796990 -20.577433 -11.151215 4.661030 -1.786418 -2.035831 -12.191100 16.991999 70.709968 -42.083587 -110.771554 29.894877 -8.461133 19.230478 1.419600 -15.173021 -2.529226 -7.887823 63.312547 -10.963020 1.078178 -5.878051 8.062042 0.110117 0.009318 -0.025953 -4.911768 -12.529014 4.315162 29.124348 74.425210 31.712020 1.790612 -9.229347 -6.709157 -0.050348 0.134756 -0.024842
-62.175873 61.994421 15.225639 174.575844 -52.018053 -0.601299 4.804459 27.248367 1.583711 0.764698 4.801803 0.153539 1.198466 7.586519 0.251606 3.780662 22.140817 1.287436 1.328767 17.292244 1.293336 1.987705 -3.749606 2.120815 5.522377 5.197976 5.809896 0.551598 -11.193317 -14.066432 -60.389766 -22.830677 113.611974 -15.843965 4.787346 -20.552973 -11.128811 4.631138 -1.775991 -2.104580 -12.176184 16.976732 70.615283 -42.054405 -110.703485 29.890539 -8.450872 19.262791 1.419535 -15.179634 -2.535250 -7.883342 63.328293 -10.954705 1.066548 -5.979740 8.086870 0.114994 0.039240 -0.036067 -4.908317 -12.533042 4.318639 29.111204 74.420282 31.695141 1.778875 -9.232656 -6.712013 -0.039854 0.139533 -0.021523
-62.173538 61.996074 15.221651 174.580057 -52.015102 -0.603916 4.799513 27.245948 1.579713 0.752223 4.804189 0.138813 1.210266 7.583408 0.261997 3.754027 22.138686 1.260468 1.352346 17.273116 1.369672 1.974537 -3.788821 2.241387 5.558337 5.185648 5.796568 0.580179 -11.121913 -14.032592 -60.391739 -22.902289 113.608538 -15.832046 4.784694 -20.529114 -11.090912 4.624484 -1.755894 -2.166172 -12.176866 16.958462 70.525157 -42.030424 -110.639838 29.887759 -8.437389 19.290941 1.408231 -15.181250 -2.544956 -7.861930 63.343836 -10.925427 1.068068 -6.047867 8.090751 0.111176 0.038414 -0.032061 -4.911346 -12.534385 4.319301 29.125842 74.418350 31.708095 1.775642 -9.233156 -6.711441 -0.040204 0.140216 -0.021595
-62.171823 61.997667 15.218645 174.586664 -52.010609 -0.605592 4.788299 27.245291 1.565616 0.749226 4.801930 0.141933 1.214839 7.582513 0.260671 3.751599 22.137619 1.258739 1.337869 17.234641 1.473376 1.973668 -3.811519 2.309164 5.571687 5.179621 5.776591 0.609801 -11.062221 -14.006351 -60.389797 -22.969827 113.598782 -15.760216 4.921020 -20.535998 -11.081164 4.615430 -1.750328 -2.217295 -12.183057 16.934675 70.429385 -42.012258 -110.569870 29.888228 -8.419312 19.317360 1.391005 -15.187587 -2.553724 -7.840707 63.360754 -10.903038 1.067698 -6.103633 8.088900 0.109590 0.027450 -0.023318 -4.915602 -12.536809 4.317943 29.107368 74.414372 31.687912 1.776348 -9.227069 -6.710483 -0.039979 0.139268 -0.021367
-62.170492 61.998540 15.217101 174.580072 -52.000367 -0.595484 4.782099 27.238297 1.554518 0.746506 4.799167 0.140351 1.201675 7.580369 0.254272 3.767616 22.138642 1.259539 1.329079 17.205016 1.546620 1.965531 -3.846538 2.403041 5.583335 5.178189 5.768866 0.643756 -11.011000 -13.991665 -60.384530 -23.033499 113.582474 -15.731061 4.941203 -20.512708 -11.073459 4.612432 -1.747261 -2.251185 -12.194821 16.906824 70.323725 -42.001090 -110.498365 29.891902 -8.399116 19.337970 1.392629 -15.198159 -2.559331 -7.841728 63.370475 -10.901609 1.064554 -6.165213 8.092375 0.108341 0.027388 -0.014855 -4.911794 -12.545998 4.314129 29.100714 74.409631 31.677489 1.782496 -9.220088 -6.709634 -0.046972 0.137447 -0.020185
